<?xml version="1.0" standalone="no"?>
<!DOCTYPE svg PUBLIC "-//W3C//DTD SVG 20010904//EN"
 "http://www.w3.org/TR/2001/REC-SVG-20010904/DTD/svg10.dtd">
<svg version="1.0" xmlns="http://www.w3.org/2000/svg"
 width="400.000000pt" height="400.000000pt" viewBox="0 0 400.000000 400.000000"
 preserveAspectRatio="xMidYMid meet">
<metadata>
Created by potrace 1.11, written by Peter Selinger 2001-2013
</metadata>
<g transform="translate(0.000000,400.000000) scale(0.100000,-0.100000)"
fill="#000000" stroke="none">
<path d="M1795 3691 c-71 -9 -135 -29 -135 -42 0 -5 132 -9 322 -9 278 0 320
2 308 14 -8 8 -33 19 -55 26 -49 14 -357 22 -440 11z"/>
<path d="M2340 3621 c-24 -7 -23 -8 19 -30 31 -16 69 -25 124 -29 69 -4 80 -8
89 -27 12 -28 40 -41 102 -50 33 -5 52 -14 62 -31 11 -16 33 -27 70 -35 35 -8
59 -19 65 -31 6 -11 30 -28 55 -38 27 -12 48 -29 53 -43 6 -14 23 -29 41 -36
17 -6 44 -23 60 -38 29 -29 32 -32 90 -91 19 -19 39 -45 45 -56 6 -12 23 -27
38 -34 16 -8 32 -24 37 -37 5 -13 17 -28 28 -34 10 -5 24 -28 30 -50 7 -22 24
-49 39 -61 15 -11 34 -42 42 -68 10 -30 24 -51 39 -57 15 -7 26 -24 32 -50 6
-22 14 -53 18 -70 4 -17 16 -31 26 -33 17 -4 18 1 13 59 -5 53 -10 67 -31 84
-14 12 -26 30 -26 41 0 37 -21 82 -45 98 -14 9 -29 33 -34 54 -8 29 -19 42
-46 55 -19 9 -35 23 -35 31 0 8 -8 21 -19 28 -10 7 -28 32 -39 55 -12 23 -41
57 -64 75 -24 18 -72 63 -108 99 -36 36 -76 70 -90 74 -13 4 -37 21 -51 36
-16 18 -37 29 -53 29 -16 0 -33 10 -47 29 -14 20 -37 33 -68 41 -30 7 -55 22
-71 42 -23 27 -34 32 -86 36 -45 4 -64 10 -80 28 -36 38 -150 56 -224 35z"/>
<path d="M1420 3602 c-15 -12 -20 -24 -15 -31 15 -25 203 8 213 37 3 9 -22 12
-86 12 -72 0 -94 -4 -112 -18z"/>
<path d="M1263 3538 c-13 -6 -23 -20 -23 -31 0 -17 5 -19 48 -12 49 7 92 28
92 45 0 13 -89 11 -117 -2z"/>
<path d="M1168 3480 c-27 -3 -57 -15 -70 -27 -13 -12 -44 -31 -70 -43 -26 -12
-50 -31 -53 -41 -4 -11 -24 -27 -45 -35 -22 -9 -42 -24 -45 -35 -4 -11 -19
-26 -35 -34 -16 -8 -34 -24 -40 -35 -5 -10 -22 -25 -38 -32 -15 -7 -34 -27
-42 -43 -8 -17 -27 -42 -42 -57 -16 -15 -28 -31 -28 -36 0 -6 -11 -13 -24 -16
-13 -3 -29 -18 -36 -35 -6 -17 -27 -45 -45 -64 -20 -21 -37 -50 -41 -73 -4
-22 -19 -50 -34 -64 -18 -17 -29 -40 -34 -71 -5 -35 -12 -49 -31 -57 -26 -12
-31 -23 -40 -105 -5 -45 -12 -61 -30 -73 -29 -19 -45 -81 -45 -174 0 -57 -5
-83 -27 -128 -26 -53 -28 -68 -31 -215 -5 -180 0 -219 31 -250 20 -20 22 -33
23 -127 1 -118 14 -171 48 -193 19 -13 24 -28 29 -83 7 -70 26 -104 59 -104
15 0 18 -8 18 -48 0 -50 21 -92 45 -92 8 0 19 -17 25 -38 5 -22 19 -47 30 -57
10 -9 27 -37 36 -60 9 -25 26 -47 39 -53 13 -6 31 -25 40 -41 8 -17 29 -38 45
-46 17 -9 30 -20 30 -25 0 -5 13 -22 29 -36 16 -14 32 -36 35 -49 4 -15 20
-28 45 -38 21 -9 41 -23 45 -32 3 -9 23 -23 43 -32 21 -8 43 -23 50 -33 7 -10
32 -26 56 -35 26 -10 49 -27 59 -45 12 -21 26 -30 55 -35 46 -8 70 -18 104
-45 16 -13 47 -23 83 -27 53 -5 58 -4 54 13 -4 24 -41 42 -101 49 -38 5 -50
11 -57 30 -6 16 -27 30 -67 45 -32 12 -67 30 -78 41 -12 10 -35 24 -53 30 -18
6 -37 20 -43 31 -6 10 -30 28 -55 38 -28 12 -48 29 -54 44 -5 14 -22 33 -37
43 -50 31 -108 86 -120 114 -6 15 -21 33 -33 39 -12 6 -31 31 -41 55 -11 24
-33 54 -49 65 -17 12 -30 28 -30 35 0 8 -14 30 -30 49 -17 19 -38 55 -46 80
-9 26 -24 51 -34 56 -12 6 -22 32 -30 77 -14 75 -24 99 -51 126 -14 13 -19 32
-19 76 0 32 -7 80 -15 107 -8 27 -15 59 -15 71 0 12 -9 28 -21 36 -19 14 -20
24 -20 241 0 180 4 233 15 254 24 44 44 122 51 202 5 60 11 78 30 96 17 16 26
41 35 97 11 63 17 78 41 96 20 15 29 32 35 67 5 34 12 48 28 54 27 10 41 27
51 60 4 14 20 39 36 55 15 17 34 44 41 61 18 42 78 110 111 125 15 7 27 16 27
21 0 14 103 114 135 131 17 8 40 27 52 41 13 14 32 26 44 26 12 0 38 17 57 38
22 23 51 41 75 47 37 9 78 48 60 57 -4 2 -29 1 -55 -2z"/>
<path d="M1725 3480 c-38 -5 -95 -19 -125 -30 -64 -25 -101 -36 -151 -44 -21
-4 -53 -17 -72 -30 -19 -13 -52 -29 -73 -36 -22 -7 -55 -25 -74 -40 -19 -15
-51 -32 -71 -39 -20 -6 -45 -22 -56 -34 -11 -12 -47 -42 -79 -67 -74 -57 -197
-179 -249 -248 -22 -29 -54 -70 -71 -90 -17 -20 -35 -50 -41 -67 -6 -16 -24
-52 -42 -79 -17 -28 -31 -57 -31 -65 0 -9 -16 -46 -35 -83 -18 -37 -37 -84
-40 -105 -4 -21 -18 -74 -32 -118 -30 -100 -49 -294 -32 -327 17 -32 28 -38
72 -38 25 0 37 -4 37 -14 0 -16 -34 -31 -50 -21 -15 9 -50 -14 -60 -41 -12
-31 5 -169 30 -243 11 -31 24 -81 30 -111 6 -30 22 -77 36 -104 15 -28 33 -68
40 -90 8 -22 27 -61 43 -86 16 -25 32 -56 36 -70 4 -14 22 -42 39 -62 17 -20
47 -58 66 -84 53 -70 172 -193 235 -244 31 -25 73 -59 93 -76 20 -17 53 -36
73 -43 20 -6 44 -20 54 -31 10 -11 43 -29 73 -40 30 -12 68 -30 83 -41 15 -11
52 -24 82 -30 30 -5 90 -23 133 -38 178 -65 596 -65 784 -1 47 16 108 34 135
40 28 6 67 22 87 35 20 13 48 27 62 31 14 3 47 21 73 40 26 19 54 34 60 34 7
0 30 15 50 34 21 18 52 40 68 49 40 20 251 227 292 286 18 25 46 70 64 98 17
29 35 55 39 58 14 9 101 191 115 243 7 26 25 74 38 106 17 40 28 88 32 145 3
48 13 124 22 171 19 101 13 202 -12 230 -15 16 -17 31 -11 88 8 84 -7 185 -38
256 -13 30 -27 69 -31 87 -8 39 -95 217 -130 269 -110 159 -174 235 -258 309
-34 29 -65 59 -70 67 -4 7 -24 23 -45 35 -20 12 -47 32 -60 43 -26 23 -112 73
-192 111 -30 15 -62 33 -72 42 -9 8 -44 21 -78 29 -34 8 -103 28 -153 45 -92
31 -93 32 -332 35 -132 1 -271 -1 -310 -6z m-486 -905 c23 -8 96 -19 162 -24
134 -11 164 -22 196 -70 46 -67 25 -141 -46 -168 -25 -9 -59 -27 -74 -40 -16
-13 -49 -25 -78 -29 -30 -4 -67 -18 -92 -35 -23 -16 -67 -34 -99 -41 l-56 -12
20 -50 c16 -42 19 -64 13 -122 -5 -57 -3 -73 9 -83 20 -17 64 -7 118 29 24 15
62 31 85 35 23 4 58 19 78 35 20 16 54 31 80 34 26 4 58 18 75 33 17 14 56 32
88 40 31 8 63 20 71 26 7 7 36 23 65 37 l51 25 -4 146 c-4 153 6 211 37 228
33 17 130 23 154 10 13 -7 80 -19 150 -25 137 -14 171 -26 212 -74 34 -41 36
-109 4 -140 -12 -11 -27 -20 -33 -20 -6 0 -33 -14 -60 -31 -28 -18 -77 -39
-110 -49 -33 -9 -78 -29 -99 -43 -54 -37 -121 -38 -138 -2 -6 14 -17 25 -25
25 -21 0 -16 -55 8 -76 36 -32 51 -79 44 -142 -4 -34 -2 -69 4 -86 10 -26 15
-28 47 -23 19 3 48 17 65 31 28 24 85 46 120 46 9 0 33 14 54 30 21 17 43 30
49 30 29 0 88 23 113 44 15 13 54 29 86 36 32 6 70 22 86 36 16 13 43 27 60
30 41 9 52 30 41 80 -21 87 -8 290 19 317 6 6 44 12 83 13 58 1 80 -2 106 -18
24 -15 43 -19 70 -15 20 4 75 0 120 -7 78 -13 87 -17 128 -57 31 -30 44 -51
44 -71 0 -44 -20 -76 -59 -94 -20 -9 -56 -29 -81 -45 -25 -15 -69 -33 -97 -39
-28 -6 -59 -20 -68 -30 -26 -28 -80 -43 -131 -35 -24 3 -44 3 -44 -2 0 -4 11
-30 25 -57 20 -40 25 -64 25 -126 0 -46 5 -81 12 -88 21 -21 56 -13 87 20 27
29 36 32 88 33 45 0 58 -3 61 -16 5 -26 -24 -47 -76 -55 -35 -5 -53 -14 -72
-36 -20 -23 -36 -31 -74 -35 l-48 -6 7 -41 c5 -23 9 -95 11 -161 1 -66 5 -137
8 -157 7 -46 -19 -78 -61 -77 -106 1 -243 18 -264 32 -13 9 -60 20 -104 26
-145 20 -165 34 -165 112 0 56 52 110 130 133 29 9 64 25 76 37 12 11 45 26
73 34 28 7 65 25 82 39 37 31 89 36 89 8 0 -39 45 -55 74 -26 26 26 19 41 -23
48 -47 7 -49 12 -55 132 -6 126 -28 162 -71 114 -9 -10 -43 -27 -74 -35 -31
-9 -72 -27 -91 -40 -19 -13 -57 -29 -85 -36 -27 -7 -62 -22 -77 -35 -15 -12
-50 -27 -78 -33 -29 -6 -66 -22 -83 -35 -70 -51 -155 -61 -181 -21 -19 28 -38
32 -56 10 -14 -17 -46 -20 -55 -5 -3 5 -8 53 -11 107 -8 136 -18 151 -78 114
-17 -11 -48 -22 -69 -26 -20 -4 -53 -20 -72 -35 -23 -18 -53 -31 -86 -35 -35
-5 -61 -16 -83 -36 -20 -17 -54 -33 -85 -40 -28 -6 -64 -21 -79 -33 -15 -12
-55 -30 -90 -39 l-62 -17 -40 26 c-27 18 -47 24 -64 20 -32 -8 -37 6 -43 139
-4 64 -11 113 -17 117 -28 19 -71 8 -98 -24 -25 -31 -30 -33 -90 -33 -61 0
-63 1 -63 25 0 20 8 28 35 37 19 7 50 12 69 12 26 1 41 9 62 33 26 32 28 33
108 32 68 0 81 2 81 16 0 22 -20 40 -46 40 -32 0 -44 45 -44 169 0 88 3 112
20 138 30 49 96 64 169 38z m2191 -510 c0 -16 -42 -30 -65 -21 -23 8 -18 35 8
45 26 10 57 -3 57 -24z m-2682 -43 c33 -21 -25 -62 -88 -62 -33 0 -66 23 -56
39 17 27 113 42 144 23z m2536 2 c25 -10 19 -43 -10 -54 -68 -26 -122 3 -75
42 23 18 56 23 85 12z m-2236 -244 c12 -13 38 -23 71 -27 68 -8 71 -16 71
-198 0 -143 0 -144 -26 -164 -24 -19 -36 -21 -108 -16 -125 9 -204 24 -239 45
-20 13 -50 20 -80 20 -82 0 -137 43 -137 106 0 43 68 105 141 129 30 10 68 28
84 41 17 12 47 25 67 29 20 4 51 18 69 31 40 29 62 30 87 4z m855 -11 c14 -25
22 -30 40 -24 12 4 36 9 54 12 42 7 46 -7 48 -196 2 -197 4 -194 -128 -186
-134 8 -165 13 -211 35 -23 10 -67 22 -97 25 -128 16 -149 30 -149 102 0 33 7
46 43 81 26 25 60 47 83 53 21 6 59 24 84 39 25 16 64 33 87 39 22 6 52 20 65
31 34 28 60 25 81 -11z"/>
<path d="M2060 2478 c-26 -29 -33 -70 -23 -148 8 -65 8 -65 42 -68 25 -3 40 3
61 23 16 15 53 33 91 43 62 17 65 19 79 60 14 41 14 45 -3 57 -11 8 -49 16
-85 20 -37 3 -84 12 -105 20 -35 13 -39 12 -57 -7z"/>
<path d="M1189 2474 c-17 -20 -25 -181 -10 -204 17 -25 79 -16 115 18 19 19
47 33 71 37 69 12 74 15 85 55 18 68 10 75 -116 90 -44 6 -91 13 -105 16 -17
4 -30 0 -40 -12z"/>
<path d="M2912 2465 c-31 -26 -32 -30 -32 -100 0 -97 4 -105 51 -105 28 0 47
8 71 29 18 16 49 32 68 35 74 15 73 14 94 83 10 31 -24 50 -109 63 -39 5 -79
12 -91 16 -14 4 -31 -3 -52 -21z"/>
<path d="M2692 1700 c-16 -21 -34 -32 -63 -36 -23 -4 -53 -17 -69 -30 -15 -13
-48 -33 -74 -43 -74 -32 -61 -57 44 -81 30 -7 64 -19 75 -26 11 -7 46 -16 77
-20 52 -6 57 -5 69 17 14 26 17 188 5 227 -10 31 -38 28 -64 -8z"/>
<path d="M920 1662 c-31 -10 -68 -27 -83 -39 -16 -12 -41 -24 -57 -28 -75 -17
-59 -68 27 -85 32 -6 81 -19 108 -30 65 -26 81 -25 110 4 30 30 43 121 23 162
-16 35 -49 39 -128 16z"/>
<path d="M1825 1675 c-16 -8 -42 -14 -56 -15 -14 0 -43 -13 -63 -29 -20 -16
-50 -32 -66 -36 -56 -12 -63 -54 -12 -73 64 -24 199 -62 219 -62 30 0 50 34
57 101 7 56 -4 107 -27 121 -15 9 -15 9 -52 -7z"/>
<path d="M3575 2550 c-8 -13 2 -101 16 -147 12 -38 38 -44 41 -10 3 45 -3 113
-14 140 -11 27 -32 36 -43 17z"/>
<path d="M3650 2303 c-3 -202 0 -696 4 -700 17 -18 34 27 46 120 15 127 9 505
-10 555 -10 28 -40 46 -40 25z"/>
<path d="M3592 1536 c-6 -14 -14 -55 -18 -92 -6 -55 -12 -70 -36 -93 -23 -22
-31 -40 -39 -95 -8 -56 -15 -73 -39 -96 -17 -15 -30 -37 -30 -49 0 -11 -14
-36 -30 -55 -17 -19 -35 -47 -41 -63 -6 -18 -22 -35 -41 -44 -20 -9 -36 -25
-42 -46 -6 -17 -23 -43 -38 -57 -16 -14 -28 -30 -28 -35 0 -6 -11 -13 -25 -17
-14 -3 -32 -19 -40 -34 -8 -15 -30 -37 -50 -48 -19 -12 -35 -28 -35 -37 0 -9
-15 -22 -32 -30 -18 -7 -44 -22 -58 -33 -14 -10 -44 -29 -67 -40 -23 -12 -44
-30 -48 -41 -4 -13 -24 -25 -61 -36 -40 -11 -58 -23 -66 -40 -12 -27 -19 -30
-88 -40 -89 -14 -97 -49 -10 -43 47 3 66 10 88 30 15 14 45 28 66 31 24 4 51
18 70 36 17 16 45 33 61 37 17 3 46 23 66 43 37 36 84 73 149 114 19 12 49 42
68 67 43 57 93 110 127 133 14 10 28 32 32 47 3 16 16 36 28 44 13 9 26 29 30
45 3 16 22 45 41 65 26 27 34 44 34 71 0 29 5 37 25 45 29 11 55 63 55 109 0
20 10 41 29 60 32 33 45 84 39 161 -4 52 -28 66 -46 26z"/>
<path d="M1410 343 c0 -20 27 -32 99 -43 74 -12 121 -8 121 10 0 17 -47 30
-136 36 -55 5 -84 3 -84 -3z"/>
<path d="M2378 334 c-27 -8 -48 -18 -48 -23 0 -13 101 -21 143 -12 42 10 70
29 61 42 -8 14 -103 9 -156 -7z"/>
<path d="M1733 267 c-12 -20 22 -31 134 -40 134 -11 335 3 379 26 l27 14 -45
7 c-65 10 -488 4 -495 -7z"/>
</g>
</svg>
